/* XPM */
static char *result[] = {
/* columns rows colors chars-per-pixel */
"96 96 34 1 ",
"  c #0E071B",
". c #100515",
"X c #131313",
"o c #1A1832",
"O c #1A1932",
"+ c #1B1932",
"@ c #1A1933",
"# c #391F20",
"$ c #391E21",
"% c #391F21",
"& c #571C27",
"* c #571D27",
"= c #5C2C28",
"- c #5D2C28",
"; c #2A2E4E",
": c #2A2F4E",
"> c #2B2F4E",
", c #2A2F4F",
"< c #424C6E",
"1 c #424D6E",
"2 c #BF6F4A",
"3 c #E69C68",
"4 c #E69C69",
"5 c gray52",
"6 c #92A1B8",
"7 c #92A0B9",
"8 c #92A1B9",
"9 c #B4B4B4",
"0 c #B5B4B4",
"q c #F6CA9F",
"w c #C7CFDC",
"e c #C7CFDD",
"r c white",
"t c None",
/* pixels */
"tttttttttttttttttttttttttttttttttttttttttttttttttttttttttttttttttttttttttttttttttttttttttttttttt",
"tttttttttttttttttttttttttttttttttttttttttttttttttttttttttttttttttttttttttttttttttttttttttttttttt",
"tttttttttttttttttttttttttttttttttttttttttttttttttttttttttttttttttttttttttttttttttttttttttttttttt",
"tttttttttttttttttttttttttttttttttttttttttttttttttttttttttttttttttttttttttttttttttttttttttttttttt",
"tttttttttttttttttttttttttttttttttttttttttttttttttttttttttttttttttttttttttttttttttttttttttttttttt",
"tttttttttttttttttttttttttttttttttttttttttttttttttttttttttttttttttttttttttttttttttttttttttttttttt",
"tttttttttttttttttttttttttttttttttttttttttttttttttttttttttttttttttttttttttttttttttttttttttttttttt",
"tttttttttttttttttttttttttttttttttttttttttttttttttttttttttttttttttttttttttttttttttttttttttttttttt",
"tttttttttttttttttttttttttttttttttttttttttttttttttttttttttttttttttttttttttttttttttttttttttttttttt",
"tttttttttttttttttttttttttttttttttttttttttttttttttttttttttttttttttttttttttttttttttttttttttttttttt",
"tttttttttttttttttttttttttttttttttttttttttttttttttttttttttttttttttttttttttttttttttttttttttttttttt",
"tttttttttttttttttttttttttttttttttttttttttttttttttttttttttttttttttttttttttttttttttttttttttttttttt",
"tttttttttttttttttttttttttttttttttttttttttttttttttttttttttttttttttttttttttttttttttttttttttttttttt",
"tttttttttttttttttttttttttttttttttttttttttttttttttttttttttttttttttttttttttttttttttttttttttttttttt",
"tttttttttttttttttttttttttttttttttttttttttttttttttttttttttttttttttttttttttttttttttttttttttttttttt",
"tttttttttttttttttttttttttttttttttttttttttttttttttttttttttttttttttttttttttttttttttttttttttttttttt",
"tttttttttttttttttttttttttttttttttttttttttttttttttttttttttttttttttttttttttttttttttttttttttttttttt",
"tttttttttttttttttttttttttttttttttttttttttttttttttttttttttttttttttttttttttttttttttttttttttttttttt",
"tttttttttttttttttttttttttttttttttttttttttttttttttttttttttttttttttttttttttttttttttttttttttttttttt",
"tttttttttttttttttttttttttttttttttttttttttttttttttttttttttttttttttttttttttttttttttttttttttttttttt",
"tttttttttttttttttttttttttttttttttttttttttttttttttttttttttttttttttttttttttttttttttttttttttttttttt",
"tttttttttttttttttttttttttttttttttttttttttttttttttttttttttttttttttttttttttttttttttttttttttttttttt",
"tttttttttttttttttttttttttttttttttttttttttttttttttttttttttttttttttttttttttttttttttttttttttttttttt",
"tttttttttttttttttttttttttttttttttttttttttttttttttttttttttttttttttttttttttttttttttttttttttttttttt",
"tttttttttttttttttttttttttttttttttttttttttttttttttttttttttttttttttttttttttttttttttttttttttttttttt",
"tttttttttttttttttttttttttttttttttttttttttttttttttttttttttttttttttttttttttttttttttttttttttttttttt",
"tttttttttttttttttttttttttttttttttttttttttttttttttttttttttttttttttttttttttttttttttttttttttttttttt",
"tttttttttttttttttttttttttttttttttttttttttttttttttttttttttttttttttttttttttttttttttttttttttttttttt",
"tttttttttttttttttttttttttttttttttttttttttttttttttttttttttttttttttttttttttttttttttttttttttttttttt",
"tttttttttttttttttttttttttttttttttttttttttttttttttttttttttttttttttttttttttttttttttttttttttttttttt",
"tttttttttttttttttttttttttttttttttttttttttttttttttttttttttttttttttttttttttttttttttttttttttttttttt",
"tttttttttttttttttttttttttttttttttttttttttttttttttttttttttttttttttttttttttttttttttttttttttttttttt",
"tttttttttttttttttttttttttttttttttttttttttttttttttttttttttttttttttttttttttttttttttttttttttttttttt",
"tttttttttttttttttttttttttttttttttttttttttttttttttttttttttttttttttttttttttttttttttttttttttttttttt",
"tttttttttttttttttttttttttttttttttttttttttttttttttttttttttttttttttttttttttttttttttttttttttttttttt",
"tttttttttttttttttttttttttttttttttttttttttttttttttttttttttttttttttttttttttttttttttttttttttttttttt",
"tttttttttttttttttttttttttttttttttttttttttttttttttttttttttttttttttttttttttttttttttttttttttttttttt",
"tttttttttttttttttttttttttttttttttttttttttttttttttttttttttttttttttttttttttttttttttttttttttttttttt",
"tttttttttttttttttttttttttttttttttttttttttttttttttttttttttttttttttttttttttttttttttttttttttttttttt",
"tttttttttttttttttttttttttttttttttttttttttttttttttttttttttttttttttttttttttttttttttttttttttttttttt",
"tttttttttttttttttttttttttttttttttttttttttttttttttttttttttttttttttttttttttttttttttttttttttttttttt",
"tttttttttttttttttttttttttttttttttttttttttttttttttttttttttttttttttttttttttttttttttttttttttttttttt",
"tttttttttttttttttttttttttttttttttttttttttttttttttttttttttttttttttttttttttttttttttttttttttttttttt",
"tttttttttttttttttttttttttttttttttttttttttttttttttttttttttttttttttttttttttttttttttttttttttttttttt",
"tttttttttttttttttttttttttttttttttttttttttttttttttttttttttttttttttttttttttttttttttttttttttttttttt",
"tttttttttttttttttttttttttttttttttttttttttttttttttttttttttttttttttttttttttttttttttttttttttttttttt",
"tttttttttttttttttttttttttttttttttttttttttttttttttttttttttttttttttttttttttttttttttttttttttttttttt",
"tttttttttttttttttttttttttttttttttttttttttttttttttttttttttttttttttttttttttttttttttttttttttttttttt",
"tttttttttttttttttttttttttttttttttttttttttttttttttttttttttttttttttttttttttttttttttttttttttttttttt",
"ttttttttttttttttttttttttttttttttttttttttttttteettttttttttttttttttttttttttttttttttttttttttttttttt",
"ttttttttttttttttttttttttttttttttttttttttttttt8e.88eetttttttttttttttttttttttttttttttttttttttttttt",
"ttttttttttttttttttttttttttttttttttttttttttttt8.88eeeettttttttttttttttttttttttttttttttttttttttttt",
"tttttttttttttttttttttttttttttttttttttttttttttt8884444tettttttttttttttttttttttttttttttttttttttttt",
"ttttttttttttttttttttttttttttttttttttttttttttte8848eq8etttttttttttttttttttttttttttttttttttttttttt",
"tttttttttttttttttttttttttttttttttttttttttttee8844XXqXttttttttttttttttttttttttttttttttttttttttttt",
"ttttttttttttttttttttttttttttttttttttttttteee8888444q4ttttttttttttttttttttttttttttttttttttttttttt",
"tttttttttttttttttttttttttttttttttttttttteee8t888e4eeettttttttttttttttttttttttttttttttttttttttttt",
"ttttttttttttttttttttttttttttttttttttttteee8ttr988e888etttttttttttttttttttttttttttttttttttttttttt",
"tttttttttttttttttttttttttttttttttttttteeew8trrr9878ee8tttttttttttttttttttttttttttttttttttttttttt",
"tttttttttttttttttttttttttttttttttttttteee8trrrrr9888e6tttttttttttttttttttttttttttttttttttttttttt",
"ttttttttttttttttttttttttttttttttttttteee8ttrrr99r988888ttttttttttttttttttttttttttttttttttttttttt",
"tttttttttttttttttttttttttttttttttttttee8tttrrr950r9888Ottttttttttttttttttttttttttttttttttttttttt",
"ttttttttttttttttttttttttttttttttttttt88tttrrr955595<:@Ottttttttttttttttttttttttttttttttttttttttt",
"tttttttttttttttttttttttttttttttttttttt6tttrrr95595<<:OOOtttttttttttttttttttttttttttttttttttttttt",
"ttttttttttttttttttttttttttttttttttttttttttrr9t555<<::OOOtttttttttttttttttttttttttttttttttttttttt",
"ttttttttttttttttttttttttttttttttttttttttttrr9t<  <:::OOotttttttttttttttttttttttttttttttttttttttt",
"tttttttttttttttttttttttttttttttttttttttttttr98        OOOttttttttttttttttttttttttttttttttttttttt",
"ttttttttttttttttttttttttttttttttttttttttttt-%8  ::,OoOO%%ttttttttttttttttttttttttttttttttttttttt",
"ttttttttttttttttttttttttttttttttttttttttttt-%888:::OOO%%#ttttttttttttttttttttttttttttttttttttttt",
"tttttttttttttttttttttttttttttttttttttttttttq34*:::,OOOO22ttttttttttttttttttttttttttttttttttttttt",
"tttttttttttttttttttttttttttttttttttttttttttqq4:<<;OOOOO22ttttttttttttttttttttttttttttttttttttttt",
"tttttttttttttttttttttttttttttttttttttttttt&*&:<<<:OOOOOOtttttttttttttttttttttttttttttttttttttttt",
"ttttttttttttttttttttttttttttttttttttttttt&&&::<<::OOOOOotttttttttttttttttttttttttttttttttttttttt",
"tttttttttttttttttttttttttttttttttttttttt&&&:::<<:OOOOOOOtttttttttttttttttttttttttttttttttttttttt",
"tttttttttttttttttttttttttttttttttttttt&&&&t::<1<:OOOOOOttttttttttttttttttttttttttttttttttttttttt",
"ttttttttttttttttttttttttttttttttttttt&&&ttt::<<<:OOOO@Ottttttttttttttttttttttttttttttttttttttttt",
"tttttttttttttttttttttttttttttttttttt&&ttttt::>:::OO+OOtttttttttttttttttttttttttttttttttttttttttt",
"tttttttttttttttttttttttttttttttttttttttttttt--%:tO%%ottttttttttttttttttttttttttttttttttttttttttt",
"tttttttttttttttttttttttttttttttttttttttttttt-=%ttt%%tttttttttttttttttttttttttttttttttttttttttttt",
"ttttttttttttttttttttttttttttttttttttttttttt--%tttt%%%ttttttttttttttttttttttttttttttttttttttttttt",
"ttttttttttttttttttttttttttttttttttttttttttt$%%tttt%%%%tttttttttttttttttttttttttttttttttttttttttt",
"tttttttttttttttttttttttttttttttttttttttttttttttttttttttttttttttttttttttttttttttttttttttttttttttt",
"tttttttttttttttttttttttttttttttttttttttttttttttttttttttttttttttttttttttttttttttttttttttttttttttt",
"tttttttttttttttttttttttttttttttttttttttttttttttttttttttttttttttttttttttttttttttttttttttttttttttt",
"tttttttttttttttttttttttttttttttttttttttttttttttttttttttttttttttttttttttttttttttttttttttttttttttt",
"tttttttttttttttttttttttttttttttttttttttttttttttttttttttttttttttttttttttttttttttttttttttttttttttt",
"tttttttttttttttttttttttttttttttttttttttttttttttttttttttttttttttttttttttttttttttttttttttttttttttt",
"tttttttttttttttttttttttttttttttttttttttttttttttttttttttttttttttttttttttttttttttttttttttttttttttt",
"tttttttttttttttttttttttttttttttttttttttttttttttttttttttttttttttttttttttttttttttttttttttttttttttt",
"tttttttttttttttttttttttttttttttttttttttttttttttttttttttttttttttttttttttttttttttttttttttttttttttt",
"tttttttttttttttttttttttttttttttttttttttttttttttttttttttttttttttttttttttttttttttttttttttttttttttt",
"tttttttttttttttttttttttttttttttttttttttttttttttttttttttttttttttttttttttttttttttttttttttttttttttt",
"tttttttttttttttttttttttttttttttttttttttttttttttttttttttttttttttttttttttttttttttttttttttttttttttt",
"tttttttttttttttttttttttttttttttttttttttttttttttttttttttttttttttttttttttttttttttttttttttttttttttt",
"tttttttttttttttttttttttttttttttttttttttttttttttttttttttttttttttttttttttttttttttttttttttttttttttt",
"tttttttttttttttttttttttttttttttttttttttttttttttttttttttttttttttttttttttttttttttttttttttttttttttt"
};
